<mxfile host="app.diagrams.net" modified="2024-04-07T06:21:22.236Z" agent="Mozilla/5.0 (Macintosh; Intel Mac OS X 10_15_7) AppleWebKit/537.36 (KHTML, like Gecko) Chrome/123.0.0.0 Safari/537.36" etag="1_2YOXgzWd0BkqBRPlr1" version="24.2.2" type="github" pages="2">
  <diagram name="4.1" id="sIn2r0iPfQ3s1HcsIE7A">
    <mxGraphModel dx="839" dy="487" grid="1" gridSize="10" guides="1" tooltips="1" connect="1" arrows="1" fold="1" page="1" pageScale="1" pageWidth="850" pageHeight="1100" math="0" shadow="0">
      <root>
        <mxCell id="0" />
        <mxCell id="1" parent="0" />
        <mxCell id="3vNstnB6YTwjLFCci1bY-2" value="" style="rounded=0;whiteSpace=wrap;html=1;strokeColor=#36393d;fillColor=#f9f7ed;dashed=1;fontFamily=Helvetica;" parent="1" vertex="1">
          <mxGeometry x="470" y="220" width="170" height="180" as="geometry" />
        </mxCell>
        <mxCell id="GF6KISGO8zbEUkw2kCRf-14" style="edgeStyle=orthogonalEdgeStyle;rounded=1;orthogonalLoop=1;jettySize=auto;html=1;entryX=1;entryY=0.5;entryDx=0;entryDy=0;curved=0;" edge="1" parent="1" source="3vNstnB6YTwjLFCci1bY-4" target="GF6KISGO8zbEUkw2kCRf-13">
          <mxGeometry relative="1" as="geometry">
            <Array as="points">
              <mxPoint x="390" y="300" />
              <mxPoint x="390" y="291" />
            </Array>
          </mxGeometry>
        </mxCell>
        <mxCell id="GF6KISGO8zbEUkw2kCRf-18" style="edgeStyle=orthogonalEdgeStyle;rounded=1;orthogonalLoop=1;jettySize=auto;html=1;entryX=1;entryY=0.5;entryDx=0;entryDy=0;curved=0;" edge="1" parent="1" source="3vNstnB6YTwjLFCci1bY-4" target="GF6KISGO8zbEUkw2kCRf-17">
          <mxGeometry relative="1" as="geometry">
            <Array as="points">
              <mxPoint x="410" y="340" />
              <mxPoint x="410" y="442" />
            </Array>
          </mxGeometry>
        </mxCell>
        <mxCell id="3vNstnB6YTwjLFCci1bY-4" value="Blogging API" style="rounded=0;whiteSpace=wrap;html=1;horizontal=0;fillColor=#dae8fc;strokeColor=#6c8ebf;fontFamily=Helvetica;" parent="1" vertex="1">
          <mxGeometry x="470" y="220" width="40" height="180" as="geometry" />
        </mxCell>
        <mxCell id="GF6KISGO8zbEUkw2kCRf-9" style="edgeStyle=orthogonalEdgeStyle;rounded=1;orthogonalLoop=1;jettySize=auto;html=1;entryX=0;entryY=0.5;entryDx=0;entryDy=0;curved=0;" edge="1" parent="1" source="3vNstnB6YTwjLFCci1bY-6" target="3vNstnB6YTwjLFCci1bY-19">
          <mxGeometry relative="1" as="geometry" />
        </mxCell>
        <mxCell id="3vNstnB6YTwjLFCci1bY-6" value="User A" style="sketch=0;pointerEvents=1;shadow=0;dashed=0;html=1;strokeColor=none;fillColor=#505050;labelPosition=center;verticalLabelPosition=bottom;verticalAlign=top;outlineConnect=0;align=center;shape=mxgraph.office.devices.laptop;dashPattern=1 1;fontFamily=Helvetica;" parent="1" vertex="1">
          <mxGeometry x="80" y="222" width="58" height="34" as="geometry" />
        </mxCell>
        <mxCell id="3vNstnB6YTwjLFCci1bY-19" value="POST /posts&lt;div&gt;&lt;div&gt;{...}&lt;/div&gt;&lt;/div&gt;" style="rounded=0;whiteSpace=wrap;html=1;dashed=1;fillColor=#fff2cc;strokeColor=#d6b656;fontFamily=Helvetica;" parent="1" vertex="1">
          <mxGeometry x="200" y="214" width="130" height="50" as="geometry" />
        </mxCell>
        <mxCell id="3vNstnB6YTwjLFCci1bY-20" value="PUT /posts/1" style="rounded=0;whiteSpace=wrap;html=1;strokeColor=#d6b656;dashed=1;fillColor=#fff2cc;fontFamily=Helvetica;" parent="1" vertex="1">
          <mxGeometry x="205" y="378" width="120" height="40" as="geometry" />
        </mxCell>
        <mxCell id="3vNstnB6YTwjLFCci1bY-23" value="User A creates a post" style="text;html=1;strokeColor=default;fillColor=none;align=center;verticalAlign=middle;whiteSpace=wrap;rounded=0;fontFamily=Helvetica;dashed=1;" parent="1" vertex="1">
          <mxGeometry x="200" y="184" width="130" height="30" as="geometry" />
        </mxCell>
        <mxCell id="3vNstnB6YTwjLFCci1bY-24" value="User B makes unauthorized edits to user A&#39;s post" style="text;html=1;strokeColor=default;fillColor=none;align=left;verticalAlign=middle;whiteSpace=wrap;rounded=0;fontFamily=Helvetica;dashed=1;spacingLeft=3;" parent="1" vertex="1">
          <mxGeometry x="185.63" y="334" width="158.75" height="44" as="geometry" />
        </mxCell>
        <mxCell id="GF6KISGO8zbEUkw2kCRf-11" style="edgeStyle=orthogonalEdgeStyle;rounded=1;orthogonalLoop=1;jettySize=auto;html=1;entryX=0;entryY=0.5;entryDx=0;entryDy=0;curved=0;" edge="1" parent="1" source="GF6KISGO8zbEUkw2kCRf-1" target="3vNstnB6YTwjLFCci1bY-20">
          <mxGeometry relative="1" as="geometry" />
        </mxCell>
        <mxCell id="GF6KISGO8zbEUkw2kCRf-1" value="User B" style="sketch=0;pointerEvents=1;shadow=0;dashed=0;html=1;strokeColor=none;fillColor=#505050;labelPosition=center;verticalLabelPosition=bottom;verticalAlign=top;outlineConnect=0;align=center;shape=mxgraph.office.devices.laptop;dashPattern=1 1;fontFamily=Helvetica;" vertex="1" parent="1">
          <mxGeometry x="80" y="381" width="58" height="34" as="geometry" />
        </mxCell>
        <mxCell id="GF6KISGO8zbEUkw2kCRf-3" value="" style="rounded=0;whiteSpace=wrap;html=1;fillColor=#f8cecc;strokeColor=#b85450;fontFamily=Helvetica;" vertex="1" parent="1">
          <mxGeometry x="520" y="228" width="100" height="162" as="geometry" />
        </mxCell>
        <mxCell id="GF6KISGO8zbEUkw2kCRf-4" value="/posts/1" style="text;html=1;strokeColor=none;fillColor=#fff2cc;align=center;verticalAlign=middle;whiteSpace=wrap;rounded=0;dashed=1;fontFamily=Helvetica;" vertex="1" parent="1">
          <mxGeometry x="540" y="270" width="60" height="30" as="geometry" />
        </mxCell>
        <mxCell id="GF6KISGO8zbEUkw2kCRf-5" value="/posts/2" style="text;html=1;strokeColor=none;fillColor=#fff2cc;align=center;verticalAlign=middle;whiteSpace=wrap;rounded=0;dashed=1;fontFamily=Helvetica;" vertex="1" parent="1">
          <mxGeometry x="540" y="308" width="60" height="30" as="geometry" />
        </mxCell>
        <mxCell id="GF6KISGO8zbEUkw2kCRf-7" value="/posts/3" style="text;html=1;strokeColor=none;fillColor=#fff2cc;align=center;verticalAlign=middle;whiteSpace=wrap;rounded=0;dashed=1;fontFamily=Helvetica;" vertex="1" parent="1">
          <mxGeometry x="540" y="350" width="60" height="30" as="geometry" />
        </mxCell>
        <mxCell id="GF6KISGO8zbEUkw2kCRf-8" value="User A&#39;s posts" style="text;html=1;strokeColor=#82b366;fillColor=#d5e8d4;align=center;verticalAlign=middle;whiteSpace=wrap;rounded=0;dashed=1;fontFamily=Helvetica;" vertex="1" parent="1">
          <mxGeometry x="520" y="228" width="100" height="30" as="geometry" />
        </mxCell>
        <mxCell id="GF6KISGO8zbEUkw2kCRf-10" style="edgeStyle=orthogonalEdgeStyle;rounded=1;orthogonalLoop=1;jettySize=auto;html=1;entryX=-0.022;entryY=0.33;entryDx=0;entryDy=0;entryPerimeter=0;curved=0;" edge="1" parent="1" source="3vNstnB6YTwjLFCci1bY-19" target="3vNstnB6YTwjLFCci1bY-4">
          <mxGeometry relative="1" as="geometry" />
        </mxCell>
        <mxCell id="GF6KISGO8zbEUkw2kCRf-12" style="edgeStyle=orthogonalEdgeStyle;rounded=1;orthogonalLoop=1;jettySize=auto;html=1;entryX=-0.005;entryY=0.575;entryDx=0;entryDy=0;entryPerimeter=0;curved=0;" edge="1" parent="1" source="3vNstnB6YTwjLFCci1bY-20" target="3vNstnB6YTwjLFCci1bY-4">
          <mxGeometry relative="1" as="geometry" />
        </mxCell>
        <mxCell id="GF6KISGO8zbEUkw2kCRf-15" style="edgeStyle=orthogonalEdgeStyle;rounded=1;orthogonalLoop=1;jettySize=auto;html=1;curved=0;" edge="1" parent="1" source="GF6KISGO8zbEUkw2kCRf-13" target="3vNstnB6YTwjLFCci1bY-6">
          <mxGeometry relative="1" as="geometry">
            <Array as="points">
              <mxPoint x="160" y="285" />
              <mxPoint x="160" y="240" />
            </Array>
          </mxGeometry>
        </mxCell>
        <mxCell id="GF6KISGO8zbEUkw2kCRf-13" value="201 Response" style="rounded=0;whiteSpace=wrap;html=1;dashed=1;fillColor=#fff2cc;strokeColor=#d6b656;fontFamily=Helvetica;" vertex="1" parent="1">
          <mxGeometry x="220" y="276" width="90" height="30" as="geometry" />
        </mxCell>
        <mxCell id="GF6KISGO8zbEUkw2kCRf-19" style="edgeStyle=orthogonalEdgeStyle;rounded=1;orthogonalLoop=1;jettySize=auto;html=1;curved=0;" edge="1" parent="1" source="GF6KISGO8zbEUkw2kCRf-17" target="GF6KISGO8zbEUkw2kCRf-1">
          <mxGeometry relative="1" as="geometry">
            <Array as="points">
              <mxPoint x="160" y="448" />
              <mxPoint x="160" y="410" />
            </Array>
          </mxGeometry>
        </mxCell>
        <mxCell id="GF6KISGO8zbEUkw2kCRf-17" value="200 Response" style="rounded=0;whiteSpace=wrap;html=1;dashed=1;fillColor=#fff2cc;strokeColor=#d6b656;fontFamily=Helvetica;" vertex="1" parent="1">
          <mxGeometry x="220" y="427" width="90" height="30" as="geometry" />
        </mxCell>
      </root>
    </mxGraphModel>
  </diagram>
  <diagram id="kkvg-B8xOXFdXFBLMx3X" name="4.2">
    <mxGraphModel dx="968" dy="562" grid="1" gridSize="10" guides="1" tooltips="1" connect="1" arrows="1" fold="1" page="1" pageScale="1" pageWidth="850" pageHeight="1100" math="0" shadow="0">
      <root>
        <mxCell id="0" />
        <mxCell id="1" parent="0" />
        <mxCell id="S33EW14kmZzFoN6Cw_ev-1" value="Payments API" style="rounded=0;whiteSpace=wrap;html=1;" vertex="1" parent="1">
          <mxGeometry x="460" y="230" width="110" height="30" as="geometry" />
        </mxCell>
        <mxCell id="S33EW14kmZzFoN6Cw_ev-2" value="Products API" style="rounded=0;whiteSpace=wrap;html=1;" vertex="1" parent="1">
          <mxGeometry x="190" y="230" width="110" height="30" as="geometry" />
        </mxCell>
        <mxCell id="S33EW14kmZzFoN6Cw_ev-3" value="Orders API" style="rounded=0;whiteSpace=wrap;html=1;" vertex="1" parent="1">
          <mxGeometry x="325" y="230" width="110" height="30" as="geometry" />
        </mxCell>
        <mxCell id="S33EW14kmZzFoN6Cw_ev-4" value="E-commerce&lt;div&gt;&lt;span style=&quot;background-color: initial;&quot;&gt;platform&lt;/span&gt;&lt;/div&gt;" style="rounded=0;whiteSpace=wrap;html=1;" vertex="1" parent="1">
          <mxGeometry x="70" y="80" width="120" height="60" as="geometry" />
        </mxCell>
        <mxCell id="S33EW14kmZzFoN6Cw_ev-5" value="" style="shape=cylinder3;whiteSpace=wrap;html=1;boundedLbl=1;backgroundOutline=1;size=15;" vertex="1" parent="1">
          <mxGeometry x="492.5" y="110" width="45" height="60" as="geometry" />
        </mxCell>
        <mxCell id="S33EW14kmZzFoN6Cw_ev-6" value="" style="shape=cylinder3;whiteSpace=wrap;html=1;boundedLbl=1;backgroundOutline=1;size=15;" vertex="1" parent="1">
          <mxGeometry x="357.5" y="110" width="45" height="60" as="geometry" />
        </mxCell>
        <mxCell id="S33EW14kmZzFoN6Cw_ev-7" value="" style="shape=cylinder3;whiteSpace=wrap;html=1;boundedLbl=1;backgroundOutline=1;size=15;" vertex="1" parent="1">
          <mxGeometry x="222.5" y="110" width="45" height="60" as="geometry" />
        </mxCell>
        <mxCell id="S33EW14kmZzFoN6Cw_ev-8" value="/products/1" style="rounded=0;whiteSpace=wrap;html=1;" vertex="1" parent="1">
          <mxGeometry x="197.5" y="280" width="95" height="30" as="geometry" />
        </mxCell>
        <mxCell id="S33EW14kmZzFoN6Cw_ev-9" value="/products/2" style="rounded=0;whiteSpace=wrap;html=1;" vertex="1" parent="1">
          <mxGeometry x="197.5" y="310" width="95" height="30" as="geometry" />
        </mxCell>
        <mxCell id="S33EW14kmZzFoN6Cw_ev-10" value="/products/3" style="rounded=0;whiteSpace=wrap;html=1;" vertex="1" parent="1">
          <mxGeometry x="197.5" y="340" width="95" height="30" as="geometry" />
        </mxCell>
        <mxCell id="S33EW14kmZzFoN6Cw_ev-11" value="/payments/1" style="rounded=0;whiteSpace=wrap;html=1;" vertex="1" parent="1">
          <mxGeometry x="467.5" y="280" width="95" height="30" as="geometry" />
        </mxCell>
        <mxCell id="S33EW14kmZzFoN6Cw_ev-12" value="/payments/2" style="rounded=0;whiteSpace=wrap;html=1;" vertex="1" parent="1">
          <mxGeometry x="467.5" y="310" width="95" height="30" as="geometry" />
        </mxCell>
        <mxCell id="S33EW14kmZzFoN6Cw_ev-13" value="/payments/3" style="rounded=0;whiteSpace=wrap;html=1;" vertex="1" parent="1">
          <mxGeometry x="467.5" y="340" width="95" height="30" as="geometry" />
        </mxCell>
        <mxCell id="S33EW14kmZzFoN6Cw_ev-14" value="/orders/1" style="rounded=0;whiteSpace=wrap;html=1;" vertex="1" parent="1">
          <mxGeometry x="332.5" y="280" width="95" height="30" as="geometry" />
        </mxCell>
        <mxCell id="S33EW14kmZzFoN6Cw_ev-15" value="/orders/2" style="rounded=0;whiteSpace=wrap;html=1;" vertex="1" parent="1">
          <mxGeometry x="332.5" y="310" width="95" height="30" as="geometry" />
        </mxCell>
        <mxCell id="S33EW14kmZzFoN6Cw_ev-16" value="/orders/3" style="rounded=0;whiteSpace=wrap;html=1;" vertex="1" parent="1">
          <mxGeometry x="332.5" y="340" width="95" height="30" as="geometry" />
        </mxCell>
      </root>
    </mxGraphModel>
  </diagram>
</mxfile>
